# xmcd
#
# Track frame offsets: 
#        150
#        15082
#        29662
#        46172
#        59280
#        73657
#        86657
#        101017
#        113080
#        125700
#        141647
#        161650
#        177020
#        199515
#        213647
#        227417
#        241512
#        254680
#        268562
#        281647
#        291370
#        302122
#        312475
#        324047
#        337642
#        350160
#
# Disc length: 4926 seconds
#
# Revision: 0
# Processed by: cddbd v1.5.2PL0 Copyright (c) Steve Scherf et al.
# Submitted via: ExactAudioCopy v0.99pb4
#
DISCID=7e133c1a
DTITLE=Various Artist - Let Me Be Your Sidetrack CD 3
DYEAR=2008
DGENRE=Country
TTITLE0=Nat Shilkret and the Victor Orchestra - Blue Yodel No. 1 (T Fo
TTITLE0=r Texas)
TTITLE1=Nat Shilkret and the Victor Orchestra - Away Out On the Mounta
TTITLE1=in
TTITLE2=Tal Henry - My Little Old Home Down In New Orleans
TTITLE3=King Oliver - Everybody Does It In Hawaii
TTITLE4=memphis Sheiks - In The Jailhouse Now
TTITLE5=Gene Kardos - In The Jailhouse Now
TTITLE6=George Hall - The One Rose (That's Left In My Heart)
TTITLE7=The Rhythm Wreckers - Never No Mo' Blues
TTITLE8=John Sellers - Let Me Be Your Sidetrack
TTITLE9=Harry Belafonte - Muleskinner Blues (Blue Yodel No. 8 - Mulesk
TTITLE9=inner Blues)
TTITLE10=John Jackson - T.B. Blues
TTITLE11=Harmonica Frank Floyd - Blue Yodel No. 6
TTITLE12=Brenda Boykin and Home Cookin' - Blue Yodel No. 1 (T For Texas)
TTITLE13=Roy Gonzales - Anuiant et blue (Lonely And Blue)
TTITLE14=Rayne-Bo Ramblers - Doe, baby, dor (Sleep Baby Sleep)
TTITLE15=Tex Morton - Dreaming With Tears In My Eyes
TTITLE16=Glenn Davis - Let Me Be Your Sidetrack
TTITLE17=Hawking Brothers - Old Pal Of My Heart
TTITLE18=Rick and Thel Carey - She Was Happy Till She Met You
TTITLE19=Buddy Williams - Dear Old Sunny South By The Sea
TTITLE20=Slim Dusty - Any Old Time
TTITLE21=Reg Lindsay - Jimmie The Kid
TTITLE22=Peter Alexander and Bill Ramsey - Missouri Cowboy (Blue Yodel N
TTITLE22=o. 8 - Muleskinner Blues)
TTITLE23=Roland Heinrich and die Rumtreiber - Das Land meines Kindheitst
TTITLE23=raums (Land Of My Boyhood Dreams)
TTITLE24=Roland Heinrich and die Rumtreiber - Ich such ir eine neue Frau
TTITLE24=(I'm Looking For A New Mama)
TTITLE25=Roland Heinrich and die Rumtreiber - Und jetzt ist er im Knast 
TTITLE25=(In The Jailhouse Now)
EXTD=
EXTT0=
EXTT1=
EXTT2=
EXTT3=
EXTT4=
EXTT5=
EXTT6=
EXTT7=
EXTT8=
EXTT9=
EXTT10=
EXTT11=
EXTT12=
EXTT13=
EXTT14=
EXTT15=
EXTT16=
EXTT17=
EXTT18=
EXTT19=
EXTT20=
EXTT21=
EXTT22=
EXTT23=
EXTT24=
EXTT25=
PLAYORDER=
